<?xml version="1.0" encoding="UTF-8"?>
<!-- Generator: Adobe Illustrator 25.2.1, SVG Export Plug-In . SVG Version: 6.00 Build 0)  -->
<svg version="1.1" id="Calque_1" xmlns="http://www.w3.org/2000/svg" xmlns:xlink="http://www.w3.org/1999/xlink" x="0px" y="0px" viewBox="0 0 595.3 248.1" style="enable-background:new 0 0 595.3 248.1;" xml:space="preserve">
<style type="text/css">
	.st0{fill:#3C3C3A;}
	.st1{fill:#F8485E;}
	.st2{fill:#FFFFFF;}
</style>
<g>
	<path class="st0" d="M429.1,113c-8.6,0-17.3,2.4-17.3,20.5c0,7.1,1,11.6,3.3,14.5c2.5,3.3,6.7,4.8,13.1,4.8c3.8,0,10.2-0.4,13.9-1   l0.6-0.1v-5.7H430c-7.5,0-10-2-10-7.9v-2.1h20c3.1,0,5-2.1,5-5.2v-2.3C445.1,118.1,439.7,113,429.1,113z M437.1,129.6H420v-1.5   c0-3.7,1.3-8.2,7.5-8.2h3.1c5.5,0,6.6,3.3,6.6,8.3V129.6z"/>
	<path class="st0" d="M362.7,113h-1.9c-11.6,0-16.7,6.3-16.7,20.4c0,11.7,2.8,19.4,16.7,19.4h1.9c11.3,0,16.6-6.3,16.6-19.9   C379.3,118.9,374.3,113,362.7,113z M370.8,136.1c0,7.1-2.3,10-8.1,10h-2.1c-6.9,0-8.1-3.1-8.1-11.8v-2.6c0-9.3,1.8-11.8,8.5-11.8   h1.2c6.3,0,8.5,1.8,8.5,11.8V136.1z"/>
	<path class="st0" d="M287.7,113c-8.6,0-17.3,2.4-17.3,20.5c0,7.1,1,11.6,3.3,14.5c2.5,3.3,6.7,4.8,13.1,4.8c3.8,0,10.2-0.4,13.9-1   l0.6-0.1v-5.7h-12.7c-7.5,0-10-2-10-7.9v-2.1h20c3.1,0,5-2.1,5-5.2v-2.3C303.7,118.1,298.3,113,287.7,113z M295.7,129.6h-17.1v-1.5   c0-3.7,1.3-8.2,7.5-8.2h3.1c5.5,0,6.6,3.3,6.6,8.3V129.6z"/>
	<path class="st0" d="M256.3,113.9h-11l0,0c-7.5,0.1-14.8,2.1-14.8,19.7c0,17.8,6.9,19.2,16.6,19.2c4,0,9.6-0.1,16.5-1.1l0.7-0.1   v-50.2h-8V113.9z M256.3,145.8h-8.9c-6.7,0-8.5-2.2-8.5-10.3V131c0-7.4,2.4-10,9.1-10h8.3V145.8z"/>
	<path class="st0" d="M467.5,113c-4.1,0-9,0.3-12.6,0.9l-0.6,0.1v6h13.8c5.1,0,6.9,1.7,6.9,6.6v1.9c-4.2-0.6-8.3-0.8-11.9-0.8   c-6.2,0-14.5,1.4-14.5,13.3c0,11.1,6.8,12,15.7,12c4,0,11.9-0.4,17.8-1.4l0.6-0.1l0.1-24.9C482.7,114.6,475.5,113,467.5,113z    M474.9,145.8h-12.5c-4,0-5.5-1.3-5.5-4.7v-1.4c0-3.5,1.8-5.1,5.9-5.1h12.1V145.8z"/>
	<polygon class="st0" points="323.7,142.2 311.9,113.9 303.6,113.9 319.5,152 327.4,152 342.9,113.9 334.8,113.9  "/>
	<path class="st0" d="M395.6,140.6v-20.4h11.6v-6.3h-8.7h-2.8v-10.5h0v-1.4h-7.5v1.4v10.5H382v0.1v0.8v2.3v0.7v2.4h5.7v20.4   c0,6.1,1.4,12.3,11.6,12.3c3,0,6.1-0.4,9.4-1.2l0.6-0.1v-5.7h-8C396.9,145.9,395.6,144.7,395.6,140.6z"/>
	<path class="st0" d="M529,112.9c-3.8,0-8.6,0.6-13,1.6c-2.7-1.4-6-1.5-9.1-1.5c-7.3,0-16,1.5-16,1.5V152h8.1v-31.9h7.5   c5.5,0,7.1,1.8,7.1,7.9v24h8.1v-26.1c0-2.3-0.3-4.1-0.9-5.6h7c6.2,0,8.1,1.9,8.1,7.9V152h8v-25.9   C543.9,112.9,533.8,112.9,529,112.9z"/>
	<path class="st1" d="M124,51.4c-40.1,0-72.7,32.5-72.7,72.7v0c0,0,0,0,0,0c0,40.1,32.5,72.7,72.7,72.7h0   c40.1,0,72.7-32.5,72.7-72.7C196.7,83.9,164.2,51.4,124,51.4z"/>
</g>
<path class="st2" d="M172.5,118.6h-27.8v50.8h-33c-17.9,0-34-10.8-34-34c0-17.2,9-34,34-34h7.7c0,0,3.1,8.4,4.2,17.4h-11.5  c-10.3,0-16.2,5.6-16.2,16.6c0,10.4,5.5,16.6,16.2,16.6h14.7V75.6h17.8v25.8h27.8V118.6z"/>
</svg>