<svg xmlns="http://www.w3.org/2000/svg" xml:space="preserve" id="Calque_1" x="0" y="0" style="enable-background:new 0 0 595.3 248.1" version="1.1" viewBox="0 0 595.3 248.1"><style>.st0{fill:#3c3c3a}</style><path d="M429.1 113c-8.6 0-17.3 2.4-17.3 20.5 0 7.1 1 11.6 3.3 14.5 2.5 3.3 6.7 4.8 13.1 4.8 3.8 0 10.2-.4 13.9-1l.6-.1V146H430c-7.5 0-10-2-10-7.9V136h20c3.1 0 5-2.1 5-5.2v-2.3c.1-10.4-5.3-15.5-15.9-15.5zm8 16.6H420v-1.5c0-3.7 1.3-8.2 7.5-8.2h3.1c5.5 0 6.6 3.3 6.6 8.3v1.4zM362.7 113h-1.9c-11.6 0-16.7 6.3-16.7 20.4 0 11.7 2.8 19.4 16.7 19.4h1.9c11.3 0 16.6-6.3 16.6-19.9 0-14-5-19.9-16.6-19.9zm8.1 23.1c0 7.1-2.3 10-8.1 10h-2.1c-6.9 0-8.1-3.1-8.1-11.8v-2.6c0-9.3 1.8-11.8 8.5-11.8h1.2c6.3 0 8.5 1.8 8.5 11.8v4.4zM287.7 113c-8.6 0-17.3 2.4-17.3 20.5 0 7.1 1 11.6 3.3 14.5 2.5 3.3 6.7 4.8 13.1 4.8 3.8 0 10.2-.4 13.9-1l.6-.1V146h-12.7c-7.5 0-10-2-10-7.9V136h20c3.1 0 5-2.1 5-5.2v-2.3c.1-10.4-5.3-15.5-15.9-15.5zm8 16.6h-17.1v-1.5c0-3.7 1.3-8.2 7.5-8.2h3.1c5.5 0 6.6 3.3 6.6 8.3v1.4zM256.3 113.9h-11c-7.5.1-14.8 2.1-14.8 19.7 0 17.8 6.9 19.2 16.6 19.2 4 0 9.6-.1 16.5-1.1l.7-.1v-50.2h-8v12.5zm0 31.9h-8.9c-6.7 0-8.5-2.2-8.5-10.3V131c0-7.4 2.4-10 9.1-10h8.3v24.8zM467.5 113c-4.1 0-9 .3-12.6.9l-.6.1v6h13.8c5.1 0 6.9 1.7 6.9 6.6v1.9c-4.2-.6-8.3-.8-11.9-.8-6.2 0-14.5 1.4-14.5 13.3 0 11.1 6.8 12 15.7 12 4 0 11.9-.4 17.8-1.4l.6-.1.1-24.9c-.1-12-7.3-13.6-15.3-13.6zm7.4 32.8h-12.5c-4 0-5.5-1.3-5.5-4.7v-1.4c0-3.5 1.8-5.1 5.9-5.1h12.1v11.2zM323.7 142.2l-11.8-28.3h-8.3l15.9 38.1h7.9l15.5-38.1h-8.1zM395.6 140.6v-20.4h11.6v-6.3h-11.5V102h-7.5v11.9H382V120.2h5.7v20.4c0 6.1 1.4 12.3 11.6 12.3 3 0 6.1-.4 9.4-1.2l.6-.1v-5.7h-8c-4.4 0-5.7-1.2-5.7-5.3zM529 112.9c-3.8 0-8.6.6-13 1.6-2.7-1.4-6-1.5-9.1-1.5-7.3 0-16 1.5-16 1.5V152h8.1v-31.9h7.5c5.5 0 7.1 1.8 7.1 7.9v24h8.1v-26.1c0-2.3-.3-4.1-.9-5.6h7c6.2 0 8.1 1.9 8.1 7.9V152h8v-25.9c0-13.2-10.1-13.2-14.9-13.2z" class="st0"/><path d="M124 51.4c-40.1 0-72.7 32.5-72.7 72.7 0 40.1 32.5 72.7 72.7 72.7 40.1 0 72.7-32.5 72.7-72.7S164.2 51.4 124 51.4z" style="fill:#f8485e"/><path d="M172.5 118.6h-27.8v50.8h-33c-17.9 0-34-10.8-34-34 0-17.2 9-34 34-34h7.7s3.1 8.4 4.2 17.4h-11.5c-10.3 0-16.2 5.6-16.2 16.6 0 10.4 5.5 16.6 16.2 16.6h14.7V75.6h17.8v25.8h27.8v17.2z" style="fill:#fff"/></svg>