<svg xmlns="http://www.w3.org/2000/svg" width="700pt" height="700pt" viewBox="0 0 700 700"><path d="M411.77 263.53h16.469v-57.648c0-14.676 17.742-22.023 28.117-11.648l115.29 115.3c6.434 6.43 6.434 16.859 0 23.293l-115.29 115.29c-10.375 10.375-28.117 3.027-28.117-11.648v-57.645H411.77c-54.578 0-98.824 44.242-98.824 98.824v65.883c0 9.094-7.375 16.469-16.473 16.469h-82.352c-9.098 0-16.469-7.375-16.469-16.469v-395.3h-57.648c-14.672 0-22.023-17.742-11.645-28.117l115.29-115.29c6.43-6.434 16.859-6.434 23.293 0l115.29 115.29c10.375 10.375 3.027 28.117-11.645 28.117h-57.648v139.41c30.145-15.711 63.863-24.117 98.824-24.117z"/></svg>