<?xml version="1.0" encoding="UTF-8"?>
<svg width="700pt" height="700pt" version="1.1" viewBox="0 0 700 700" xmlns="http://www.w3.org/2000/svg">
 <g>
  <path d="m542.5 490h-386.09c-4.6406 0-9.0938-1.8438-12.375-5.125s-5.125-7.7344-5.125-12.375v-385c0-4.6406 1.8438-9.0938 5.125-12.375s7.7344-5.125 12.375-5.125h176.09c4.6406 0 9.0938 1.8438 12.375 5.125s5.125 7.7344 5.125 12.375v35c0 4.6406-1.8438 9.0938-5.125 12.375s-7.7344 5.125-12.375 5.125h-123.59v280h281.09v-122.5c0-4.6406 1.8438-9.0938 5.125-12.375s7.7344-5.125 12.375-5.125h35c4.6406 0 9.0938 1.8438 12.375 5.125s5.125 7.7344 5.125 12.375v175c0 4.6406-1.8438 9.0938-5.125 12.375s-7.7344 5.125-12.375 5.125z"/>
  <path d="m402.5 70c-4.6406 0-9.0938 1.8438-12.375 5.125s-5.125 7.7344-5.125 12.375v35c0 4.6406 1.8438 9.0938 5.125 12.375s7.7344 5.125 12.375 5.125h38.008l-155.38 155.38c-3.2812 3.2812-5.125 7.7305-5.125 12.371v42.246h42.246c4.6406 0 9.0898-1.8438 12.375-5.125l155.38-155.38v38.008c0 4.6406 1.8438 9.0938 5.125 12.375s7.7344 5.125 12.375 5.125h35c4.6406 0 9.0938-1.8438 12.375-5.125s5.125-7.7344 5.125-12.375v-157.5z"/>
 </g>
</svg>
