<svg xmlns="http://www.w3.org/2000/svg" viewBox="0 0 13 13"><path d="M10.969 8.125h-.813a.406.406 0 0 0-.406.406v2.844H1.625V3.25h3.656a.406.406 0 0 0 .407-.406V2.03a.406.406 0 0 0-.407-.406H1.22A1.219 1.219 0 0 0 0 2.844v8.937A1.219 1.219 0 0 0 1.219 13h8.937a1.218 1.218 0 0 0 1.219-1.219v-3.25a.406.406 0 0 0-.406-.406ZM12.39 0H9.14a.61.61 0 0 0-.432 1.041l.907.907-6.188 6.186a.61.61 0 0 0 0 .864l.575.574a.61.61 0 0 0 .864 0l6.185-6.187.907.906A.61.61 0 0 0 13 3.859V.61A.61.61 0 0 0 12.39 0Z"/></svg>