<svg xmlns="http://www.w3.org/2000/svg" fill="none" viewBox="-1.5 -1.52 17.25 22.13"><mask id="a" fill="#fff"><path fill-rule="evenodd" d="M8.502 18.426c2.07-2.488 5.735-7.452 5.735-11.426 0-3-2.034-7-7.118-7C2.034 0 0 4 0 7c0 3.974 3.665 8.938 5.736 11.426.73.877 2.035.877 2.766 0ZM7 9a2 2 0 1 0 0-4 2 2 0 0 0 0 4Z" clip-rule="evenodd"/></mask><path fill="#fff" fill-rule="evenodd" d="M8.502 18.426c2.07-2.488 5.735-7.452 5.735-11.426 0-3-2.034-7-7.118-7C2.034 0 0 4 0 7c0 3.974 3.665 8.938 5.736 11.426.73.877 2.035.877 2.766 0ZM7 9a2 2 0 1 0 0-4 2 2 0 0 0 0 4Z" clip-rule="evenodd"/><path fill="#3C3C3A" d="m8.502 18.426-1.153-.96 1.153.96Zm-2.766 0 1.153-.96-1.153.96ZM12.737 7c0 1.585-.753 3.539-1.892 5.524-1.115 1.944-2.49 3.733-3.496 4.942l2.305 1.92c1.064-1.279 2.558-3.216 3.793-5.37 1.211-2.111 2.29-4.627 2.29-7.016h-3ZM7.12 1.5c2.102 0 3.457.806 4.313 1.834.893 1.074 1.305 2.472 1.305 3.666h3c0-1.806-.604-3.908-2-5.584C12.306-.306 10.102-1.5 7.12-1.5v3ZM1.5 7c0-1.194.412-2.592 1.306-3.666C3.66 2.306 5.016 1.5 7.119 1.5v-3C4.136-1.5 1.932-.306.499 1.416-.895 3.092-1.5 5.194-1.5 7h3Zm5.389 10.466c-1.007-1.21-2.381-2.998-3.496-4.942C2.253 10.54 1.5 8.585 1.5 7h-3c0 2.389 1.079 4.905 2.29 7.017 1.235 2.153 2.729 4.09 3.793 5.368l2.306-1.919Zm.46 0a.294.294 0 0 1-.23.118.294.294 0 0 1-.23-.118l-2.306 1.92a3.282 3.282 0 0 0 5.071 0l-2.305-1.92ZM7.5 7a.5.5 0 0 1-.5.5v3A3.5 3.5 0 0 0 10.5 7h-3ZM7 6.5a.5.5 0 0 1 .5.5h3A3.5 3.5 0 0 0 7 3.5v3Zm-.5.5a.5.5 0 0 1 .5-.5v-3A3.5 3.5 0 0 0 3.5 7h3Zm.5.5a.5.5 0 0 1-.5-.5h-3A3.5 3.5 0 0 0 7 10.5v-3Z" mask="url(#a)"/></svg>