<svg xmlns="http://www.w3.org/2000/svg" width="25" height="25" fill="none"><path fill="#9015F0" d="M3.91 5.332c-.018.04-.016.087-.04.123L2.889 6.96a.083.083 0 0 0 .021.114l6.059 3.93c.034.022.078.038.093.076a.08.08 0 0 1-.043.102.078.078 0 0 1-.06 0L1.706 9.158a.077.077 0 0 0-.096.062l-.401 2.01a.078.078 0 0 0 .066.092l7.754 1.501a.082.082 0 0 1 .058.082.083.083 0 0 1-.063.077l-7.956 1.11a.082.082 0 0 0-.07.097l.428 1.981a.083.083 0 0 0 .095.062l7.846-1.574a.078.078 0 0 1 .1.048.079.079 0 0 1-.003.06c-.018.037-.063.05-.099.07l-6.889 3.809a.077.077 0 0 0-.04.05.078.078 0 0 0 .012.063l1.074 1.67a.077.077 0 0 0 .112.019l6.183-4.32c.033-.023.065-.057.106-.057a.078.078 0 0 1 .077.08c0 .041-.036.072-.06.105l-4.463 5.927a.078.078 0 0 0 .02.11l1.555 1.161a.078.078 0 0 0 .062.015.078.078 0 0 0 .052-.036l4.362-6.96c.01-.018.018-.038.033-.052a.078.078 0 0 1 .128.027.08.08 0 0 1 0 .06l-2.18 7.699a.083.083 0 0 0 .059.102l2.011.465a.077.077 0 0 0 .097-.063l1.33-7.827a.082.082 0 0 1 .078-.059c.018 0 .035.006.049.017.028.02.032.06.037.095l1.074 7.924a.078.078 0 0 0 .09.067l2.006-.37a.082.082 0 0 0 .066-.095l-1.94-7.868a.082.082 0 0 1 .102-.09c.033.009.052.044.07.075l3.97 6.953a.077.077 0 0 0 .113.029l1.587-1.093a.083.083 0 0 0 .019-.112l-4.67-6.441a.078.078 0 0 1-.022-.056.08.08 0 0 1 .023-.056.078.078 0 0 1 .086-.015c.019.008.034.024.05.036l6.437 4.758a.077.077 0 0 0 .114-.02l.974-1.622a.077.077 0 0 0 .013-.06.077.077 0 0 0-.034-.05l-6.74-4.025a.079.079 0 0 1 .062-.144l7.504 2.115a.078.078 0 0 0 .084-.025.079.079 0 0 0 .014-.028l.55-2.077a.073.073 0 0 0-.057-.099l-7.495-1.43a.082.082 0 0 1-.058-.081.083.083 0 0 1 .063-.077l7.695-.9a.088.088 0 0 0 .07-.097l-.435-2.019a.083.083 0 0 0-.095-.061l-7.482 1.576a.077.077 0 0 1-.09-.063.078.078 0 0 1 .012-.058c.023-.033.068-.042.103-.062l6.634-3.672a.077.077 0 0 0 .038-.048.079.079 0 0 0-.009-.061L22.568 5.72a.078.078 0 0 0-.05-.037.077.077 0 0 0-.062.013l-6.271 4.55a.077.077 0 0 1-.1-.008.077.077 0 0 1-.009-.101l4.643-6.265a.083.083 0 0 0-.02-.11l-1.538-1.228a.077.077 0 0 0-.114.02l-4.065 6.408c-.011.017-.02.037-.034.051a.079.079 0 0 1-.056.023.079.079 0 0 1-.07-.11l1.965-7.279a.078.078 0 0 0-.057-.098l-1.986-.508a.077.077 0 0 0-.096.067l-1.374 7.767a.082.082 0 0 1-.158-.006l-1.018-7.815a.083.083 0 0 0-.09-.067l-1.96.326a.077.077 0 0 0-.06.095l1.68 7.738a.083.083 0 0 1-.052.083.082.082 0 0 1-.095-.026L7.637 2.468a.078.078 0 0 0-.079-.04.077.077 0 0 0-.03.011L5.904 3.51a.077.077 0 0 0-.023.113l4.26 6.073c.012.017.027.032.034.051a.08.08 0 0 1 0 .06.079.079 0 0 1-.104.042c-.018-.009-.033-.024-.05-.036L4.123 5.38c-.036-.027-.059-.07-.099-.09a.085.085 0 0 0-.114.042Z"/><path fill="currentColor" d="M3.91 5.332c-.018.04-.016.087-.04.123L2.889 6.96a.083.083 0 0 0 .021.114l6.059 3.93c.034.022.078.038.093.076a.08.08 0 0 1-.043.102.078.078 0 0 1-.06 0L1.706 9.158a.077.077 0 0 0-.096.062l-.401 2.01a.078.078 0 0 0 .066.092l7.754 1.501a.082.082 0 0 1 .058.082.083.083 0 0 1-.063.077l-7.956 1.11a.082.082 0 0 0-.07.097l.428 1.981a.083.083 0 0 0 .095.062l7.846-1.574a.078.078 0 0 1 .1.048.079.079 0 0 1-.003.06c-.018.037-.063.05-.099.07l-6.889 3.809a.077.077 0 0 0-.04.05.078.078 0 0 0 .012.063l1.074 1.67a.077.077 0 0 0 .112.019l6.183-4.32c.033-.023.065-.057.106-.057a.078.078 0 0 1 .077.08c0 .041-.036.072-.06.105l-4.463 5.927a.078.078 0 0 0 .02.11l1.555 1.161a.078.078 0 0 0 .062.015.078.078 0 0 0 .052-.036l4.362-6.96c.01-.018.018-.038.033-.052a.078.078 0 0 1 .128.027.08.08 0 0 1 0 .06l-2.18 7.699a.083.083 0 0 0 .059.102l2.011.465a.077.077 0 0 0 .097-.063l1.33-7.827a.082.082 0 0 1 .078-.059c.018 0 .035.006.049.017.028.02.032.06.037.095l1.074 7.924a.078.078 0 0 0 .09.067l2.006-.37a.082.082 0 0 0 .066-.095l-1.94-7.868a.082.082 0 0 1 .102-.09c.033.009.052.044.07.075l3.97 6.953a.077.077 0 0 0 .113.029l1.587-1.093a.083.083 0 0 0 .019-.112l-4.67-6.441a.078.078 0 0 1-.022-.056.08.08 0 0 1 .023-.056.078.078 0 0 1 .086-.015c.019.008.034.024.05.036l6.437 4.758a.077.077 0 0 0 .114-.02l.974-1.622a.077.077 0 0 0 .013-.06.077.077 0 0 0-.034-.05l-6.74-4.025a.079.079 0 0 1 .062-.144l7.504 2.115a.078.078 0 0 0 .084-.025.079.079 0 0 0 .014-.028l.55-2.077a.073.073 0 0 0-.057-.099l-7.495-1.43a.082.082 0 0 1-.058-.081.083.083 0 0 1 .063-.077l7.695-.9a.088.088 0 0 0 .07-.097l-.435-2.019a.083.083 0 0 0-.095-.061l-7.482 1.576a.077.077 0 0 1-.09-.063.078.078 0 0 1 .012-.058c.023-.033.068-.042.103-.062l6.634-3.672a.077.077 0 0 0 .038-.048.079.079 0 0 0-.009-.061L22.568 5.72a.078.078 0 0 0-.05-.037.077.077 0 0 0-.062.013l-6.271 4.55a.077.077 0 0 1-.1-.008.077.077 0 0 1-.009-.101l4.643-6.265a.083.083 0 0 0-.02-.11l-1.538-1.228a.077.077 0 0 0-.114.02l-4.065 6.408c-.011.017-.02.037-.034.051a.079.079 0 0 1-.056.023.079.079 0 0 1-.07-.11l1.965-7.279a.078.078 0 0 0-.057-.098l-1.986-.508a.077.077 0 0 0-.096.067l-1.374 7.767a.082.082 0 0 1-.158-.006l-1.018-7.815a.083.083 0 0 0-.09-.067l-1.96.326a.077.077 0 0 0-.06.095l1.68 7.738a.083.083 0 0 1-.052.083.082.082 0 0 1-.095-.026L7.637 2.468a.078.078 0 0 0-.079-.04.077.077 0 0 0-.03.011L5.904 3.51a.077.077 0 0 0-.023.113l4.26 6.073c.012.017.027.032.034.051a.08.08 0 0 1 0 .06.079.079 0 0 1-.104.042c-.018-.009-.033-.024-.05-.036L4.123 5.38c-.036-.027-.059-.07-.099-.09a.085.085 0 0 0-.114.042Z"/></svg>