<svg
  width="25"
  height="25"
  viewBox="0 0 25 25"
  fill="none"
  xmlns="http://www.w3.org/2000/svg"
>
  <path
    d="M3.91026 5.33244C3.89247 5.37116 3.89394 5.41941 3.87064 5.45509L2.88834 6.95952C2.87606 6.97753 2.87139 6.9997 2.87535 7.02119C2.87931 7.04269 2.89157 7.06176 2.90947 7.0742L8.96762 11.0032C9.00212 11.0256 9.04618 11.0418 9.06138 11.0801C9.0691 11.0995 9.06887 11.1212 9.06067 11.1404C9.05248 11.1596 9.03702 11.1747 9.01771 11.1824C8.9984 11.1901 8.97681 11.1898 8.9577 11.1816L1.70646 9.15823C1.69601 9.15535 1.68509 9.15471 1.67438 9.15635C1.66368 9.15798 1.65344 9.16186 1.64433 9.16773C1.63522 9.1736 1.62744 9.18133 1.62149 9.19042C1.61555 9.19951 1.6116 9.20975 1.60985 9.22049L1.20885 11.2309C1.2069 11.2413 1.20708 11.2519 1.20939 11.2623C1.21169 11.2726 1.21607 11.2823 1.22225 11.2909C1.22843 11.2995 1.23627 11.3067 1.24532 11.3121C1.25437 11.3175 1.26441 11.3211 1.27484 11.3225L9.02925 12.8233C9.04639 12.8287 9.06129 12.8396 9.07168 12.8544C9.08208 12.8691 9.08738 12.8868 9.0868 12.9049C9.08623 12.9229 9.0798 12.9402 9.06849 12.9542C9.05717 12.9682 9.0416 12.9781 9.02415 12.9823L1.06785 14.0924C1.05673 14.0938 1.04599 14.0975 1.03633 14.1032C1.02667 14.1089 1.01828 14.1165 1.01167 14.1256C1.00506 14.1347 1.00038 14.145 0.9979 14.156C0.995422 14.167 0.995193 14.1783 0.997253 14.1894L1.42609 16.1704C1.43112 16.1909 1.44376 16.2087 1.4614 16.2201C1.47904 16.2316 1.50036 16.2358 1.52098 16.232L9.36726 14.658C9.38684 14.6511 9.40834 14.6524 9.42706 14.6614C9.44577 14.6705 9.46017 14.6866 9.46706 14.7063C9.47394 14.726 9.47277 14.7476 9.4638 14.7664C9.44614 14.8034 9.40116 14.8165 9.36531 14.8363L2.47641 18.6446C2.46654 18.6496 2.45787 18.6567 2.45098 18.6654C2.44409 18.6741 2.43916 18.6842 2.43649 18.695C2.43382 18.7058 2.43349 18.717 2.43552 18.728C2.43755 18.7389 2.4419 18.7493 2.44827 18.7584L3.52229 20.4279C3.52815 20.4368 3.53574 20.4444 3.54464 20.4502C3.55354 20.4561 3.56356 20.46 3.57403 20.4618C3.58449 20.4636 3.59521 20.4631 3.6055 20.4606C3.6158 20.458 3.62545 20.4534 3.63387 20.4469L9.81684 16.1276C9.85045 16.1042 9.88212 16.0695 9.92311 16.0702C9.9439 16.0705 9.96371 16.0792 9.97821 16.0942C9.9927 16.1092 10.0007 16.1294 10.0004 16.1503C9.9998 16.1914 9.96421 16.2221 9.93947 16.255L5.47668 22.1822C5.47066 22.1907 5.4664 22.2003 5.46416 22.2105C5.46192 22.2206 5.46173 22.2311 5.46362 22.2414C5.46551 22.2517 5.46944 22.2614 5.47516 22.2702C5.48088 22.2789 5.48828 22.2863 5.49692 22.2921L7.0521 23.453C7.06073 23.4598 7.07069 23.4647 7.08134 23.4674C7.09199 23.47 7.1031 23.4704 7.11388 23.4684C7.12467 23.4664 7.13489 23.4621 7.1439 23.4559C7.15291 23.4496 7.1605 23.4415 7.16614 23.432L11.5276 16.4716C11.5385 16.4542 11.5465 16.4345 11.5612 16.4201C11.5686 16.4129 11.5773 16.4072 11.5869 16.4034C11.5964 16.3996 11.6066 16.3977 11.6169 16.3978C11.6272 16.398 11.6374 16.4002 11.6469 16.4043C11.6563 16.4084 11.6649 16.4143 11.6721 16.4217C11.6793 16.4291 11.685 16.4379 11.6888 16.4475C11.6926 16.4571 11.6945 16.4674 11.6944 16.4777C11.6943 16.4881 11.6921 16.4983 11.6881 16.5078L9.50976 24.2056C9.50673 24.2162 9.50584 24.2273 9.50714 24.2382C9.50844 24.2492 9.51191 24.2598 9.51734 24.2694C9.52277 24.2789 9.53004 24.2874 9.53875 24.2941C9.54745 24.3008 9.55742 24.3057 9.56803 24.3085L11.5795 24.7728C11.59 24.7757 11.6009 24.7763 11.6116 24.7747C11.6223 24.773 11.6326 24.7691 11.6417 24.7633C11.6508 24.7574 11.6586 24.7497 11.6645 24.7406C11.6704 24.7315 11.6744 24.7213 11.6762 24.7105L13.0051 16.8827C13.0102 16.8657 13.0206 16.8509 13.0348 16.8403C13.049 16.8298 13.0662 16.8242 13.0839 16.8242C13.1015 16.8243 13.1187 16.8301 13.1329 16.8408C13.1609 16.8619 13.1648 16.9008 13.1695 16.9356L14.2438 24.8599C14.2451 24.8705 14.2485 24.8807 14.2539 24.8899C14.2592 24.899 14.2663 24.907 14.2749 24.9133C14.2834 24.9196 14.2931 24.9241 14.3034 24.9265C14.3137 24.9288 14.3244 24.9291 14.3348 24.9271L16.3401 24.5577C16.3615 24.5537 16.3805 24.5414 16.3928 24.5234C16.4052 24.5054 16.4099 24.4831 16.4059 24.4616L14.4651 16.5939C14.4629 16.576 14.4665 16.5579 14.4754 16.5423C14.4844 16.5267 14.4982 16.5144 14.5148 16.5075C14.5313 16.5005 14.5497 16.4992 14.5671 16.5037C14.6015 16.5126 14.6199 16.548 14.6376 16.579L18.6078 23.5323C18.6128 23.5422 18.6199 23.551 18.6286 23.5579C18.6373 23.5648 18.6473 23.5698 18.6581 23.5725C18.6688 23.5752 18.68 23.5756 18.6909 23.5736C18.7018 23.5715 18.7121 23.5672 18.7211 23.5608L20.3082 22.4681C20.3251 22.4554 20.3364 22.4367 20.3398 22.4159C20.3433 22.395 20.3387 22.3736 20.3269 22.356L15.6568 15.915C15.6496 15.9076 15.644 15.8988 15.6402 15.8891C15.6363 15.8795 15.6345 15.8692 15.6346 15.8589C15.6348 15.8485 15.6369 15.8383 15.641 15.8288C15.6451 15.8193 15.651 15.8107 15.6584 15.8035C15.6658 15.7963 15.6745 15.7907 15.684 15.7869C15.6936 15.7831 15.7039 15.7812 15.7142 15.7814C15.7245 15.7815 15.7346 15.7837 15.7441 15.7878C15.7629 15.796 15.7776 15.8115 15.7941 15.8237L22.2308 20.5825C22.2394 20.5894 22.2494 20.5942 22.26 20.5969C22.2707 20.5995 22.2818 20.5999 22.2925 20.5979C22.3033 20.5959 22.3136 20.5916 22.3226 20.5854C22.3316 20.5791 22.3392 20.571 22.3448 20.5615L23.3185 18.9396C23.3245 18.9312 23.3288 18.9215 23.331 18.9114C23.3333 18.9012 23.3335 18.8907 23.3316 18.8804C23.3297 18.8702 23.3258 18.8604 23.32 18.8517C23.3143 18.843 23.3069 18.8355 23.2983 18.8297L16.5578 14.8054C16.5387 14.7972 16.5237 14.7816 16.5159 14.7622C16.5082 14.7428 16.5085 14.7211 16.5167 14.7019C16.5249 14.6827 16.5403 14.6675 16.5596 14.6598C16.5789 14.6521 16.6005 14.6524 16.6196 14.6607L24.1236 16.7758C24.1335 16.779 24.144 16.7802 24.1543 16.7793C24.1647 16.7784 24.1748 16.7754 24.184 16.7705C24.1932 16.7656 24.2013 16.7588 24.2078 16.7507C24.2143 16.7425 24.2192 16.7331 24.222 16.7231L24.7728 14.6456C24.7766 14.6354 24.7782 14.6244 24.7772 14.6135C24.7763 14.6027 24.773 14.5921 24.7675 14.5827C24.762 14.5733 24.7544 14.5652 24.7454 14.5591C24.7364 14.553 24.7261 14.549 24.7154 14.5475L17.2197 13.1175C17.2026 13.1121 17.1877 13.1012 17.1773 13.0864C17.1669 13.0717 17.1616 13.054 17.1621 13.0359C17.1627 13.0179 17.1692 13.0006 17.1805 12.9866C17.1918 12.9726 17.2074 12.9627 17.2248 12.9585L24.9203 12.0594C24.9422 12.0554 24.9617 12.0432 24.9748 12.0251C24.988 12.0071 24.9937 11.9846 24.9909 11.9624L24.555 9.94322C24.55 9.92274 24.5373 9.90497 24.5197 9.89352C24.502 9.88208 24.4808 9.87782 24.4601 9.88165L16.9778 11.4577C16.9576 11.4615 16.9368 11.457 16.9199 11.4453C16.903 11.4335 16.8914 11.4156 16.8877 11.3953C16.8839 11.375 16.8884 11.3541 16.9 11.3372C16.9227 11.3039 16.9676 11.2949 17.0028 11.2754L23.6374 7.60273C23.6467 7.59771 23.6548 7.59086 23.6613 7.58257C23.6678 7.57428 23.6726 7.56472 23.6753 7.55451C23.678 7.5443 23.6786 7.53363 23.6771 7.52317C23.6756 7.5127 23.6719 7.50266 23.6664 7.49364L22.5683 5.71993C22.5628 5.71052 22.5555 5.70235 22.5467 5.69597C22.5379 5.6896 22.5279 5.68515 22.5173 5.68291C22.5066 5.68067 22.4957 5.68069 22.4851 5.68298C22.4745 5.68527 22.4646 5.68977 22.4558 5.69619L16.1845 10.2454C16.1696 10.2564 16.1514 10.2616 16.133 10.2602C16.1146 10.2588 16.0972 10.2508 16.0841 10.2377C16.071 10.2246 16.063 10.2073 16.0616 10.1888C16.0601 10.1703 16.0652 10.1519 16.0761 10.1369L20.7195 3.87207C20.7304 3.85456 20.7344 3.83356 20.7307 3.81321C20.7269 3.79286 20.7157 3.77466 20.6992 3.76219L19.1611 2.5339C19.1525 2.52708 19.1425 2.52218 19.1319 2.51953C19.1212 2.51688 19.1101 2.51654 19.0993 2.51852C19.0886 2.52051 19.0783 2.52478 19.0693 2.53105C19.0603 2.53733 19.0527 2.54546 19.0471 2.55491L14.9818 8.96192C14.9708 8.97926 14.9627 8.99893 14.948 9.01329C14.9406 9.02051 14.9319 9.02619 14.9224 9.03002C14.9128 9.03384 14.9026 9.03573 14.8923 9.03559C14.882 9.03544 14.8718 9.03326 14.8623 9.02916C14.8529 9.02507 14.8443 9.01915 14.8371 9.01172C14.8299 9.0043 14.8243 8.99553 14.8204 8.98591C14.8166 8.9763 14.8147 8.96603 14.8148 8.95568C14.815 8.94533 14.8171 8.9351 14.8212 8.92559L16.7869 1.64736C16.7899 1.63715 16.7908 1.62642 16.7895 1.61583C16.7882 1.60524 16.7848 1.59502 16.7794 1.58581C16.774 1.57661 16.7668 1.56861 16.7582 1.56232C16.7496 1.55604 16.7398 1.55159 16.7295 1.54926L14.7442 1.04062C14.7335 1.03789 14.7223 1.0375 14.7114 1.03949C14.7005 1.04148 14.6901 1.0458 14.6811 1.05216C14.672 1.05852 14.6644 1.06676 14.6587 1.07634C14.6531 1.08591 14.6496 1.0966 14.6484 1.10766L13.274 8.87472C13.2686 8.89193 13.2578 8.90689 13.2431 8.9173C13.2285 8.92772 13.2109 8.93303 13.1929 8.93242C13.175 8.9318 13.1577 8.9253 13.1438 8.9139C13.1298 8.9025 13.12 8.88682 13.1157 8.86928L12.0984 1.05381C12.0946 1.03307 12.0831 1.01454 12.0662 1.00204C12.0493 0.989545 12.0282 0.984015 12.0074 0.986588L10.0482 1.31297C10.0378 1.31486 10.0279 1.31888 10.0191 1.32478C10.0103 1.33067 10.0028 1.33831 9.99712 1.34724C9.9914 1.35616 9.98756 1.36618 9.98584 1.37667C9.98412 1.38715 9.98458 1.39788 9.98715 1.40819L11.6682 9.14586C11.6695 9.16356 11.6651 9.18122 11.6557 9.1962C11.6463 9.21119 11.6323 9.22271 11.6158 9.22907C11.5994 9.23543 11.5813 9.2363 11.5643 9.23152C11.5473 9.22674 11.5322 9.21657 11.5214 9.20254L7.63745 2.46846C7.63244 2.45915 7.62559 2.45096 7.61733 2.4444C7.60907 2.43783 7.59959 2.43301 7.58942 2.43026C7.57925 2.4275 7.56863 2.42688 7.55822 2.42839C7.54781 2.42991 7.53781 2.43354 7.52885 2.43908L5.90322 3.50922C5.89387 3.51469 5.88574 3.52207 5.87942 3.53089C5.87309 3.53972 5.86868 3.54978 5.86648 3.56043C5.86427 3.57108 5.86432 3.58209 5.86661 3.59273C5.8689 3.60337 5.87341 3.61342 5.87981 3.62221L10.1398 9.69525C10.1516 9.7121 10.1666 9.72726 10.1742 9.7464C10.178 9.75602 10.1799 9.7663 10.1798 9.77665C10.1796 9.78699 10.1774 9.79721 10.1734 9.80671C10.1693 9.81621 10.1634 9.82479 10.156 9.83199C10.1486 9.83919 10.1399 9.84486 10.1303 9.84867C10.1208 9.85247 10.1105 9.85434 10.1002 9.85418C10.0899 9.85401 10.0798 9.8518 10.0703 9.84769C10.0515 9.8395 10.0369 9.824 10.0205 9.81166L4.12275 5.37972C4.08746 5.3532 4.06415 5.30915 4.02414 5.29051C4.00348 5.28088 3.97988 5.27989 3.95853 5.28776C3.93718 5.29562 3.9198 5.31169 3.91026 5.33244Z"
    fill="#9015F0"
  />
  <path
    d="M3.91026 5.33244C3.89247 5.37116 3.89394 5.41941 3.87064 5.45509L2.88834 6.95952C2.87606 6.97753 2.87139 6.9997 2.87535 7.02119C2.87931 7.04269 2.89157 7.06176 2.90947 7.0742L8.96762 11.0032C9.00212 11.0256 9.04618 11.0418 9.06138 11.0801C9.0691 11.0995 9.06887 11.1212 9.06067 11.1404C9.05248 11.1596 9.03702 11.1747 9.01771 11.1824C8.9984 11.1901 8.97681 11.1898 8.9577 11.1816L1.70646 9.15823C1.69601 9.15535 1.68509 9.15471 1.67438 9.15635C1.66368 9.15798 1.65344 9.16186 1.64433 9.16773C1.63522 9.1736 1.62744 9.18133 1.62149 9.19042C1.61555 9.19951 1.6116 9.20975 1.60985 9.22049L1.20885 11.2309C1.2069 11.2413 1.20708 11.2519 1.20939 11.2623C1.21169 11.2726 1.21607 11.2823 1.22225 11.2909C1.22843 11.2995 1.23627 11.3067 1.24532 11.3121C1.25437 11.3175 1.26441 11.3211 1.27484 11.3225L9.02925 12.8233C9.04639 12.8287 9.06129 12.8396 9.07168 12.8544C9.08208 12.8691 9.08738 12.8868 9.0868 12.9049C9.08623 12.9229 9.0798 12.9402 9.06849 12.9542C9.05717 12.9682 9.0416 12.9781 9.02415 12.9823L1.06785 14.0924C1.05673 14.0938 1.04599 14.0975 1.03633 14.1032C1.02667 14.1089 1.01828 14.1165 1.01167 14.1256C1.00506 14.1347 1.00038 14.145 0.9979 14.156C0.995422 14.167 0.995193 14.1783 0.997253 14.1894L1.42609 16.1704C1.43112 16.1909 1.44376 16.2087 1.4614 16.2201C1.47904 16.2316 1.50036 16.2358 1.52098 16.232L9.36726 14.658C9.38684 14.6511 9.40834 14.6524 9.42706 14.6614C9.44577 14.6705 9.46017 14.6866 9.46706 14.7063C9.47394 14.726 9.47277 14.7476 9.4638 14.7664C9.44614 14.8034 9.40116 14.8165 9.36531 14.8363L2.47641 18.6446C2.46654 18.6496 2.45787 18.6567 2.45098 18.6654C2.44409 18.6741 2.43916 18.6842 2.43649 18.695C2.43382 18.7058 2.43349 18.717 2.43552 18.728C2.43755 18.7389 2.4419 18.7493 2.44827 18.7584L3.52229 20.4279C3.52815 20.4368 3.53574 20.4444 3.54464 20.4502C3.55354 20.4561 3.56356 20.46 3.57403 20.4618C3.58449 20.4636 3.59521 20.4631 3.6055 20.4606C3.6158 20.458 3.62545 20.4534 3.63387 20.4469L9.81684 16.1276C9.85045 16.1042 9.88212 16.0695 9.92311 16.0702C9.9439 16.0705 9.96371 16.0792 9.97821 16.0942C9.9927 16.1092 10.0007 16.1294 10.0004 16.1503C9.9998 16.1914 9.96421 16.2221 9.93947 16.255L5.47668 22.1822C5.47066 22.1907 5.4664 22.2003 5.46416 22.2105C5.46192 22.2206 5.46173 22.2311 5.46362 22.2414C5.46551 22.2517 5.46944 22.2614 5.47516 22.2702C5.48088 22.2789 5.48828 22.2863 5.49692 22.2921L7.0521 23.453C7.06073 23.4598 7.07069 23.4647 7.08134 23.4674C7.09199 23.47 7.1031 23.4704 7.11388 23.4684C7.12467 23.4664 7.13489 23.4621 7.1439 23.4559C7.15291 23.4496 7.1605 23.4415 7.16614 23.432L11.5276 16.4716C11.5385 16.4542 11.5465 16.4345 11.5612 16.4201C11.5686 16.4129 11.5773 16.4072 11.5869 16.4034C11.5964 16.3996 11.6066 16.3977 11.6169 16.3978C11.6272 16.398 11.6374 16.4002 11.6469 16.4043C11.6563 16.4084 11.6649 16.4143 11.6721 16.4217C11.6793 16.4291 11.685 16.4379 11.6888 16.4475C11.6926 16.4571 11.6945 16.4674 11.6944 16.4777C11.6943 16.4881 11.6921 16.4983 11.6881 16.5078L9.50976 24.2056C9.50673 24.2162 9.50584 24.2273 9.50714 24.2382C9.50844 24.2492 9.51191 24.2598 9.51734 24.2694C9.52277 24.2789 9.53004 24.2874 9.53875 24.2941C9.54745 24.3008 9.55742 24.3057 9.56803 24.3085L11.5795 24.7728C11.59 24.7757 11.6009 24.7763 11.6116 24.7747C11.6223 24.773 11.6326 24.7691 11.6417 24.7633C11.6508 24.7574 11.6586 24.7497 11.6645 24.7406C11.6704 24.7315 11.6744 24.7213 11.6762 24.7105L13.0051 16.8827C13.0102 16.8657 13.0206 16.8509 13.0348 16.8403C13.049 16.8298 13.0662 16.8242 13.0839 16.8242C13.1015 16.8243 13.1187 16.8301 13.1329 16.8408C13.1609 16.8619 13.1648 16.9008 13.1695 16.9356L14.2438 24.8599C14.2451 24.8705 14.2485 24.8807 14.2539 24.8899C14.2592 24.899 14.2663 24.907 14.2749 24.9133C14.2834 24.9196 14.2931 24.9241 14.3034 24.9265C14.3137 24.9288 14.3244 24.9291 14.3348 24.9271L16.3401 24.5577C16.3615 24.5537 16.3805 24.5414 16.3928 24.5234C16.4052 24.5054 16.4099 24.4831 16.4059 24.4616L14.4651 16.5939C14.4629 16.576 14.4665 16.5579 14.4754 16.5423C14.4844 16.5267 14.4982 16.5144 14.5148 16.5075C14.5313 16.5005 14.5497 16.4992 14.5671 16.5037C14.6015 16.5126 14.6199 16.548 14.6376 16.579L18.6078 23.5323C18.6128 23.5422 18.6199 23.551 18.6286 23.5579C18.6373 23.5648 18.6473 23.5698 18.6581 23.5725C18.6688 23.5752 18.68 23.5756 18.6909 23.5736C18.7018 23.5715 18.7121 23.5672 18.7211 23.5608L20.3082 22.4681C20.3251 22.4554 20.3364 22.4367 20.3398 22.4159C20.3433 22.395 20.3387 22.3736 20.3269 22.356L15.6568 15.915C15.6496 15.9076 15.644 15.8988 15.6402 15.8891C15.6363 15.8795 15.6345 15.8692 15.6346 15.8589C15.6348 15.8485 15.6369 15.8383 15.641 15.8288C15.6451 15.8193 15.651 15.8107 15.6584 15.8035C15.6658 15.7963 15.6745 15.7907 15.684 15.7869C15.6936 15.7831 15.7039 15.7812 15.7142 15.7814C15.7245 15.7815 15.7346 15.7837 15.7441 15.7878C15.7629 15.796 15.7776 15.8115 15.7941 15.8237L22.2308 20.5825C22.2394 20.5894 22.2494 20.5942 22.26 20.5969C22.2707 20.5995 22.2818 20.5999 22.2925 20.5979C22.3033 20.5959 22.3136 20.5916 22.3226 20.5854C22.3316 20.5791 22.3392 20.571 22.3448 20.5615L23.3185 18.9396C23.3245 18.9312 23.3288 18.9215 23.331 18.9114C23.3333 18.9012 23.3335 18.8907 23.3316 18.8804C23.3297 18.8702 23.3258 18.8604 23.32 18.8517C23.3143 18.843 23.3069 18.8355 23.2983 18.8297L16.5578 14.8054C16.5387 14.7972 16.5237 14.7816 16.5159 14.7622C16.5082 14.7428 16.5085 14.7211 16.5167 14.7019C16.5249 14.6827 16.5403 14.6675 16.5596 14.6598C16.5789 14.6521 16.6005 14.6524 16.6196 14.6607L24.1236 16.7758C24.1335 16.779 24.144 16.7802 24.1543 16.7793C24.1647 16.7784 24.1748 16.7754 24.184 16.7705C24.1932 16.7656 24.2013 16.7588 24.2078 16.7507C24.2143 16.7425 24.2192 16.7331 24.222 16.7231L24.7728 14.6456C24.7766 14.6354 24.7782 14.6244 24.7772 14.6135C24.7763 14.6027 24.773 14.5921 24.7675 14.5827C24.762 14.5733 24.7544 14.5652 24.7454 14.5591C24.7364 14.553 24.7261 14.549 24.7154 14.5475L17.2197 13.1175C17.2026 13.1121 17.1877 13.1012 17.1773 13.0864C17.1669 13.0717 17.1616 13.054 17.1621 13.0359C17.1627 13.0179 17.1692 13.0006 17.1805 12.9866C17.1918 12.9726 17.2074 12.9627 17.2248 12.9585L24.9203 12.0594C24.9422 12.0554 24.9617 12.0432 24.9748 12.0251C24.988 12.0071 24.9937 11.9846 24.9909 11.9624L24.555 9.94322C24.55 9.92274 24.5373 9.90497 24.5197 9.89352C24.502 9.88208 24.4808 9.87782 24.4601 9.88165L16.9778 11.4577C16.9576 11.4615 16.9368 11.457 16.9199 11.4453C16.903 11.4335 16.8914 11.4156 16.8877 11.3953C16.8839 11.375 16.8884 11.3541 16.9 11.3372C16.9227 11.3039 16.9676 11.2949 17.0028 11.2754L23.6374 7.60273C23.6467 7.59771 23.6548 7.59086 23.6613 7.58257C23.6678 7.57428 23.6726 7.56472 23.6753 7.55451C23.678 7.5443 23.6786 7.53363 23.6771 7.52317C23.6756 7.5127 23.6719 7.50266 23.6664 7.49364L22.5683 5.71993C22.5628 5.71052 22.5555 5.70235 22.5467 5.69597C22.5379 5.6896 22.5279 5.68515 22.5173 5.68291C22.5066 5.68067 22.4957 5.68069 22.4851 5.68298C22.4745 5.68527 22.4646 5.68977 22.4558 5.69619L16.1845 10.2454C16.1696 10.2564 16.1514 10.2616 16.133 10.2602C16.1146 10.2588 16.0972 10.2508 16.0841 10.2377C16.071 10.2246 16.063 10.2073 16.0616 10.1888C16.0601 10.1703 16.0652 10.1519 16.0761 10.1369L20.7195 3.87207C20.7304 3.85456 20.7344 3.83356 20.7307 3.81321C20.7269 3.79286 20.7157 3.77466 20.6992 3.76219L19.1611 2.5339C19.1525 2.52708 19.1425 2.52218 19.1319 2.51953C19.1212 2.51688 19.1101 2.51654 19.0993 2.51852C19.0886 2.52051 19.0783 2.52478 19.0693 2.53105C19.0603 2.53733 19.0527 2.54546 19.0471 2.55491L14.9818 8.96192C14.9708 8.97926 14.9627 8.99893 14.948 9.01329C14.9406 9.02051 14.9319 9.02619 14.9224 9.03002C14.9128 9.03384 14.9026 9.03573 14.8923 9.03559C14.882 9.03544 14.8718 9.03326 14.8623 9.02916C14.8529 9.02507 14.8443 9.01915 14.8371 9.01172C14.8299 9.0043 14.8243 8.99553 14.8204 8.98591C14.8166 8.9763 14.8147 8.96603 14.8148 8.95568C14.815 8.94533 14.8171 8.9351 14.8212 8.92559L16.7869 1.64736C16.7899 1.63715 16.7908 1.62642 16.7895 1.61583C16.7882 1.60524 16.7848 1.59502 16.7794 1.58581C16.774 1.57661 16.7668 1.56861 16.7582 1.56232C16.7496 1.55604 16.7398 1.55159 16.7295 1.54926L14.7442 1.04062C14.7335 1.03789 14.7223 1.0375 14.7114 1.03949C14.7005 1.04148 14.6901 1.0458 14.6811 1.05216C14.672 1.05852 14.6644 1.06676 14.6587 1.07634C14.6531 1.08591 14.6496 1.0966 14.6484 1.10766L13.274 8.87472C13.2686 8.89193 13.2578 8.90689 13.2431 8.9173C13.2285 8.92772 13.2109 8.93303 13.1929 8.93242C13.175 8.9318 13.1577 8.9253 13.1438 8.9139C13.1298 8.9025 13.12 8.88682 13.1157 8.86928L12.0984 1.05381C12.0946 1.03307 12.0831 1.01454 12.0662 1.00204C12.0493 0.989545 12.0282 0.984015 12.0074 0.986588L10.0482 1.31297C10.0378 1.31486 10.0279 1.31888 10.0191 1.32478C10.0103 1.33067 10.0028 1.33831 9.99712 1.34724C9.9914 1.35616 9.98756 1.36618 9.98584 1.37667C9.98412 1.38715 9.98458 1.39788 9.98715 1.40819L11.6682 9.14586C11.6695 9.16356 11.6651 9.18122 11.6557 9.1962C11.6463 9.21119 11.6323 9.22271 11.6158 9.22907C11.5994 9.23543 11.5813 9.2363 11.5643 9.23152C11.5473 9.22674 11.5322 9.21657 11.5214 9.20254L7.63745 2.46846C7.63244 2.45915 7.62559 2.45096 7.61733 2.4444C7.60907 2.43783 7.59959 2.43301 7.58942 2.43026C7.57925 2.4275 7.56863 2.42688 7.55822 2.42839C7.54781 2.42991 7.53781 2.43354 7.52885 2.43908L5.90322 3.50922C5.89387 3.51469 5.88574 3.52207 5.87942 3.53089C5.87309 3.53972 5.86868 3.54978 5.86648 3.56043C5.86427 3.57108 5.86432 3.58209 5.86661 3.59273C5.8689 3.60337 5.87341 3.61342 5.87981 3.62221L10.1398 9.69525C10.1516 9.7121 10.1666 9.72726 10.1742 9.7464C10.178 9.75602 10.1799 9.7663 10.1798 9.77665C10.1796 9.78699 10.1774 9.79721 10.1734 9.80671C10.1693 9.81621 10.1634 9.82479 10.156 9.83199C10.1486 9.83919 10.1399 9.84486 10.1303 9.84867C10.1208 9.85247 10.1105 9.85434 10.1002 9.85418C10.0899 9.85401 10.0798 9.8518 10.0703 9.84769C10.0515 9.8395 10.0369 9.824 10.0205 9.81166L4.12275 5.37972C4.08746 5.3532 4.06415 5.30915 4.02414 5.29051C4.00348 5.28088 3.97988 5.27989 3.95853 5.28776C3.93718 5.29562 3.9198 5.31169 3.91026 5.33244Z"
    fill="currentColor"
  />
</svg>
