<svg xmlns="http://www.w3.org/2000/svg" viewBox="170.45 100.65 357.68 358.55"><path d="M504.22 362.15h-15.68v-23.297a40.65 40.65 0 0 0-8.79-25.254v-49.785a23.285 23.285 0 0 0 15.063-6.184 23.294 23.294 0 0 0 7.336-14.535l5.992-51.91v-.004a8.91 8.91 0 0 0-2.242-6.945 8.79 8.79 0 0 0-6.551-2.91h-8.566a46.009 46.009 0 0 0 1.117-9.969 46.65 46.65 0 0 0-46.703-46.649 44.929 44.929 0 0 0-15.008 2.52 46.472 46.472 0 0 0-24.93-23.32 46.487 46.487 0 0 0-59.071 23.32 46.07 46.07 0 0 0-15.062-2.52 46.604 46.604 0 0 0-39.004 23.738 46.59 46.59 0 0 0 39.004 69.39v11.2a104.545 104.545 0 0 0-39.93-7.84c-7.531.003-15.04.812-22.398 2.41l-13.105-41.72v-.003a4.637 4.637 0 0 0-2.297-2.743 4.71 4.71 0 0 0-3.527-.335l-54.04 16.8a4.24 4.24 0 0 0-3.078.95l-19.098 5.992a4.65 4.65 0 0 0-3.023 5.602l23.742 75.434a104.785 104.785 0 0 0-9.129 42.895 106.405 106.405 0 0 0 24.707 67.727 106.403 106.403 0 0 0 62.207 36.434 32.883 32.883 0 0 0 10.883 20.375 32.862 32.862 0 0 0 21.598 8.183h151.2a32.867 32.867 0 0 0 23.188-9.629 32.864 32.864 0 0 0 9.63-23.188v-14.277h15.68a24.976 24.976 0 0 0 20.64-12.805 24.97 24.97 0 0 0 0-24.289 24.975 24.975 0 0 0-20.64-12.805zm-232.4-11.199v11.199h-13.887a48.222 48.222 0 0 1-4.875-5.602zm-15.68 20.551h15.457v31.359h-15.68a15.68 15.68 0 1 1 0-31.36zm24.977-25.426v-7.281.004c0-1.387.094-2.77.277-4.145a31.706 31.706 0 0 1 12.602-21.449 30.576 30.576 0 0 1 13.61-5.597 28.808 28.808 0 0 1 4.984-.45h134.96a30.554 30.554 0 0 1 10.359 1.735 31.789 31.789 0 0 1 15.473 11.574 31.809 31.809 0 0 1 5.922 18.387v9.687h-198.18zm59.527-110.09v-18.984h.953l2.352-.617 3.136-.953 2.239-.895 2.969-1.344 2.128-1.12 2.743-1.735 1.96-1.344a47.34 47.34 0 0 0 2.575-2.07l1.734-1.512a34.33 34.33 0 0 0 2.406-2.52l1.457-1.566c.84-1.008 1.567-2.015 2.297-3.078l1.063-1.457.004-.004a46.103 46.103 0 0 0 2.8-4.93 46.323 46.323 0 0 0 30.07 0 46.207 46.207 0 0 0 29.066 24.473c1.215.36 2.45.66 3.696.895v58.129h-24.25v-34.551a4.647 4.647 0 1 0-9.293 0v34.832h-28.676v-34.832a4.646 4.646 0 1 0-9.293 0v34.832h-24.137zm129.86 68.938a39.607 39.607 0 0 0-5.602-3.082l-.671-.39v-37.579h6.44zm-15.734-6.328a40.777 40.777 0 0 0-7.227-.672h-2.07v-36.625a23.558 23.558 0 0 0 9.297 2.465zm-114.13-1.063v-12.879l95.59-.004v13.273h-95.59zm152.49-55.44c-.836 7.238-7.05 12.647-14.336 12.483h-22.402a14.26 14.26 0 0 1-10.637-4.812v-31.922a46.736 46.736 0 0 0 6.887-.559l1.96-.449a46.211 46.211 0 0 0 4.758-1.121c.84 0 1.68-.617 2.52-.953.84-.336 2.574-.953 3.863-1.567 1.29-.617 1.68-.953 2.52-1.398.84-.45 2.297-1.23 3.36-1.96 1.062-.727 1.624-1.177 2.405-1.794.785-.617 2.016-1.512 2.91-2.351.895-.84 1.457-1.457 2.184-2.184a42.938 42.938 0 0 0 2.52-2.742c.785-.953 1.289-1.68 1.902-2.52.617-.84 1.398-2.015 2.07-3.078s1.008-1.848 1.512-2.742c.504-.895.726-1.23 1.008-1.902h11.199zm-199.14-70.786a37.344 37.344 0 0 1 10.922-26.395 37.363 37.363 0 0 1 26.375-10.957 36.116 36.116 0 0 1 15.566 3.473 4.646 4.646 0 0 0 3.777.102 4.636 4.636 0 0 0 2.606-2.735 37.24 37.24 0 0 1 49.809-21.539 37.23 37.23 0 0 1 20.25 21.54 4.636 4.636 0 0 0 2.605 2.734 4.646 4.646 0 0 0 3.778-.102 35.506 35.506 0 0 1 15.512-3.418 37.353 37.353 0 0 1 37.352 37.351 36.533 36.533 0 0 1-2.352 12.992 37.42 37.42 0 0 1-13.711 17.59 37.422 37.422 0 0 1-21.289 6.66c-1.21.086-2.426.086-3.64 0h-.278a31.08 31.08 0 0 1-6.16-1.402 36.962 36.962 0 0 1-24.81-23.184 4.644 4.644 0 0 0-4.366-3.078c-.68 0-1.348.152-1.961.445a36.726 36.726 0 0 1-31.023 0 4.654 4.654 0 0 0-6.387 2.633 35.998 35.998 0 0 1-2.125 4.816 37.299 37.299 0 0 1-56.902 11.68 37.295 37.295 0 0 1-13.547-29.207zm-2.8 58.97a95.227 95.227 0 0 1 39.93 8.62v45.81a57.682 57.682 0 0 0-39.704-15.902 56.361 56.361 0 0 0-7.785.503l-11.648-37.07v-.003a96.925 96.925 0 0 1 19.434-1.957zm0 47.77v-.005a48.326 48.326 0 0 1 39.198 19.824h-17.582c-2.18 0-4.351.188-6.496.563a39.923 39.923 0 0 0-12.32 3.973l-7.504-24.078a49.445 49.445 0 0 1 4.93-.282zm-5.602 29.792-.559.559-1.398 1.344-1.903 1.96-1.23 1.512-1.625 2.13-1.063 1.624c-.504.785-.953 1.512-1.343 2.297l-.895 1.68c-.39.84-.727 1.625-1.063 2.465-.335.84-.503 1.175-.671 1.734-.168.559-.559 1.793-.84 2.688s-.336 1.12-.504 1.734c-.168.617-.39 2.016-.559 3.078-.168 1.063 0 1.008 0 1.512h-.008a40.117 40.117 0 0 0 0 4.648v2.297l-23.129 7.281-46.93-144.82 46.762-14.727zM193.19 206.36l46.816 144.87-12.88 4.032-45.862-145.21zm1.902 120.34h.004a95.901 95.901 0 0 1 4.308-28.613l20.273 64.398a4.637 4.637 0 0 0 2.297 2.743 4.455 4.455 0 0 0 1.961.504c.461.074.934.074 1.399 0l18.535-5.602c1.007 1.457 1.96 2.969 3.078 4.312l.004.004a24.91 24.91 0 0 0-14.863 16.473 24.923 24.923 0 0 0 4.16 21.79 24.911 24.911 0 0 0 19.887 9.84h15.457v9.128a97.042 97.042 0 0 1-76.664-94.977zm284.2 99.512a23.594 23.594 0 0 1-6.906 16.617 23.565 23.565 0 0 1-16.613 6.903h-151.2a23.514 23.514 0 0 1-23.465-23.07c.016-.207.016-.41 0-.618v-68.207h198.18zm36.008-28c-2.961 2.98-7 4.637-11.2 4.594h-15.68v-31.359h15.68a15.667 15.667 0 0 1 11.196 4.531 15.67 15.67 0 0 1 4.652 11.145 15.665 15.665 0 0 1-4.648 11.148z"/><path d="m436.97 323.23-44.406-.336h-.004a4.65 4.65 0 0 0 0 9.297l44.406.336h.004a4.65 4.65 0 0 0 0-9.297zM344.73 322.84c-18.031 0-18.93.39-19.824.727a4.656 4.656 0 0 0-2.828 5.199 4.653 4.653 0 0 0 4.566 3.761h18.145a4.65 4.65 0 0 0 0-9.296zM453.82 422.13c-48.719.504-123.2 1.008-128.8 0a4.644 4.644 0 0 0-5.066 3.691 4.643 4.643 0 0 0 3.218 5.38c2.52.503 18.984.671 39.535.671 33.602 0 78.398-.449 91.168-.617v.004a4.65 4.65 0 0 0 0-9.297z"/></svg>