<svg version="1.0" id="Layer_1" xmlns="http://www.w3.org/2000/svg" xmlns:xlink="http://www.w3.org/1999/xlink" x="0px" y="0px" style="enable-background:new 0 0 890.5 613.7;" xml:space="preserve" viewBox="79.97 198.98 215.77 215.75"> <path d="M188,199c-59.6-0.1-107.9,48.1-108,107.7c-0.1,59.6,48.1,107.9,107.7,108s107.9-48.1,108-107.7c0,0,0,0,0,0 	v-0.1C295.7,247.4,247.5,199.1,188,199 M259.8,298.7h-41.3v75.3h-49c-26.5,0-50.4-16.1-50.4-50.4c0-25.5,13.3-50.4,50.4-50.4h11.4 	c2.9,8.4,5.1,17.1,6.4,25.9h-17.1c-15.3,0-23.9,8.3-23.9,24.7c0,15.5,8.1,24.7,23.9,24.7h21.8V235h26.5v38.4h41.3L259.8,298.7z"></path> </svg>