<svg xmlns="http://www.w3.org/2000/svg" viewBox="-0.03 0.5 11.47 10"><path d="M6.786 9.071H5.357A.357.357 0 0 0 5 9.43v.714a.357.357 0 0 0 .357.357h1.429a.357.357 0 0 0 .357-.357v-.714a.357.357 0 0 0-.357-.358ZM.357 3.357H1.43v6.786a.357.357 0 0 0 .357.357H2.5a.357.357 0 0 0 .357-.357V3.357H3.93a.357.357 0 0 0 .252-.61L2.395.606a.357.357 0 0 0-.504 0L.105 2.748a.357.357 0 0 0 .252.61Zm9.286 0H5.357A.357.357 0 0 0 5 3.714v.715a.357.357 0 0 0 .357.357h4.286A.357.357 0 0 0 10 4.429v-.715a.357.357 0 0 0-.357-.357ZM8.214 6.214H5.357A.357.357 0 0 0 5 6.571v.715a.357.357 0 0 0 .357.357h2.857a.357.357 0 0 0 .358-.357V6.57a.357.357 0 0 0-.358-.357ZM11.072.5H5.357A.357.357 0 0 0 5 .857v.714a.357.357 0 0 0 .357.358h5.715a.357.357 0 0 0 .357-.358V.857A.357.357 0 0 0 11.072.5Z"/></svg>